<svg xmlns="http://www.w3.org/2000/svg" width="117" height="117" viewBox="0 0 117 117"><rect width="117" height="117" fill="#FFF"/><path fill="#000" fill-rule="nonzero" d="M112,5 L112,112 L5,112 L5,5 L112,5 Z M107.006667,9.99333333 L9.99333333,9.99333333 L9.99333333,107.006667 L107.006667,107.006667 L107.006667,9.99333333 Z"/><path fill="#000" fill-rule="nonzero" d="M44.3221491,94.1675358 L44.3221491,79.3038998 L44.4951162,79.3038998 L54.7693595,94.1675358 L59.0820048,94.1675358 L59.0820048,70.5517667 L54.1120846,70.5517667 L54.1120846,85.4038715 L53.9045242,85.4038715 L43.7109988,70.5517667 L39.3291667,70.5517667 L39.3291667,94.1675358 L44.3221491,94.1675358 Z M73.3760262,94.1675358 L77.8616386,78.727343 L78.0461368,78.727343 L82.5432803,94.1675358 L87.4094202,94.1675358 L94.1666667,70.5517667 L88.7124387,70.5517667 L84.8033832,86.9951684 L84.5958227,86.9951684 L80.2947085,70.5517667 L75.624598,70.5517667 L71.3119526,86.960575 L71.1159233,86.960575 L67.2068678,70.5517667 L61.7526398,70.5517667 L68.5098863,94.1675358 L73.3760262,94.1675358 Z"/></svg>
