<svg xmlns="http://www.w3.org/2000/svg" width="700" height="300"><g fill="#000" fill-rule="nonzero"><path d="M700 0v300H0V0h700zm-14 14H14v272h672V14z"/><path d="M167.363 249.033v-41.655h.484l28.793 41.655h12.086V182.85h-13.928v41.622h-.581l-28.567-41.622h-12.28v66.182h13.993zm66.782.937c2.456 0 4.622-.329 6.496-.986 1.874-.657 3.48-1.572 4.815-2.747a13.804 13.804 0 003.2-4.087h.387v6.883h13.055v-33.479c0-2.951-.57-5.488-1.712-7.61a14.703 14.703 0 00-4.67-5.22c-1.971-1.356-4.223-2.358-6.754-3.004-2.531-.647-5.176-.97-7.933-.97-3.964 0-7.449.598-10.454 1.794-3.006 1.195-5.456 2.897-7.352 5.105-1.896 2.209-3.167 4.82-3.813 7.837l12.732 1.034c.474-1.637 1.443-3 2.908-4.088 1.465-1.088 3.437-1.632 5.914-1.632 2.348 0 4.163.56 5.445 1.68 1.282 1.12 1.923 2.704 1.923 4.75v.195c0 1.055-.399 1.853-1.196 2.391-.797.539-2.079.943-3.845 1.212-1.767.27-4.094.555-6.98.856a44.893 44.893 0 00-7.029 1.228c-2.23.582-4.217 1.444-5.962 2.585-1.745 1.142-3.124 2.65-4.137 4.525-1.012 1.874-1.518 4.19-1.518 6.947 0 3.275.716 6.006 2.149 8.192 1.432 2.187 3.387 3.835 5.865 4.945 2.477 1.11 5.3 1.664 8.466 1.664zm3.943-9.5c-2.111 0-3.85-.491-5.219-1.471-1.368-.98-2.052-2.408-2.052-4.282 0-1.293.334-2.375 1.002-3.248.668-.872 1.605-1.567 2.811-2.084 1.207-.517 2.618-.894 4.234-1.131.754-.108 1.594-.232 2.52-.372.927-.14 1.853-.301 2.78-.484a25.892 25.892 0 002.504-.614c.743-.227 1.33-.48 1.76-.76v5.268c0 1.745-.44 3.307-1.324 4.685-.883 1.38-2.1 2.472-3.652 3.28-1.55.808-3.339 1.212-5.364 1.212zm45.826 7.916c2.489 1.013 5.392 1.455 8.71 1.325 1.787-.064 3.306-.242 4.556-.533 1.25-.29 2.219-.544 2.908-.76l-2.165-10.243c-.345.064-.84.156-1.487.274-.646.119-1.292.178-1.938.178-.927 0-1.74-.14-2.44-.42-.7-.28-1.244-.77-1.632-1.47-.388-.7-.582-1.686-.582-2.957v-24.042h9.34v-10.342h-9.34v-11.892h-13.766l-.001 11.893h-6.785v10.34h6.785v25.853c-.02 3.098.595 5.688 1.844 7.77l.193.308c1.378 2.133 3.312 3.706 5.8 4.718zm31.155-55.388c2.047 0 3.797-.684 5.252-2.052 1.454-1.368 2.18-3.01 2.18-4.928 0-1.896-.726-3.528-2.18-4.896-1.455-1.368-3.216-2.052-5.284-2.052-2.025 0-3.77.684-5.235 2.052-1.465 1.368-2.197 3-2.197 4.896 0 1.917.732 3.56 2.197 4.928 1.465 1.368 3.22 2.052 5.267 2.052zm6.819 56.035v-49.637h-13.766v49.637h13.766zm39.922 0l17.354-49.637h-14.575l-10.276 35.515h-.517l-10.309-35.515h-14.542l17.354 49.637h15.511zm44.506.97c4.093 0 7.707-.631 10.842-1.891 3.134-1.26 5.698-3.027 7.69-5.3 1.994-2.273 3.313-4.939 3.96-7.998l-12.733-.84c-.474 1.25-1.163 2.305-2.068 3.167-.905.861-1.993 1.508-3.264 1.939-1.27.43-2.671.646-4.2.646-2.306 0-4.299-.485-5.98-1.454-1.68-.97-2.978-2.349-3.893-4.137-.916-1.788-1.374-3.91-1.374-6.366v-.031l33.802-.001v-3.781c0-4.223-.592-7.912-1.777-11.068-1.185-3.156-2.838-5.78-4.96-7.869a20.65 20.65 0 00-7.433-4.702c-2.833-1.045-5.887-1.567-9.161-1.567-4.87 0-9.108 1.077-12.716 3.232-3.609 2.154-6.404 5.16-8.386 9.016-1.982 3.856-2.973 8.337-2.973 13.443 0 5.235.99 9.764 2.973 13.588 1.982 3.824 4.81 6.776 8.482 8.855 3.674 2.079 8.063 3.118 13.169 3.118zm-10.987-31.12c.12-1.658.573-3.182 1.357-4.573a10.314 10.314 0 013.765-3.846c1.605-.958 3.452-1.438 5.542-1.438 2.003 0 3.765.437 5.283 1.31a9.405 9.405 0 013.571 3.602c.862 1.53 1.293 3.286 1.293 5.268h-20.83l.019-.323zm92.648 30.15l12.57-43.27h.518l12.603 43.27h13.637l18.937-66.182h-15.286l-10.955 46.082h-.581l-12.054-46.082h-13.088l-12.085 45.985h-.55l-10.955-45.985h-15.285l18.937 66.182h13.637zm81.585.97c4.093 0 7.707-.631 10.842-1.891 3.134-1.26 5.698-3.027 7.69-5.3 1.993-2.273 3.313-4.939 3.96-7.998l-12.733-.84c-.474 1.25-1.163 2.305-2.068 3.167-.905.861-1.993 1.508-3.264 1.939-1.271.43-2.671.646-4.201.646-2.305 0-4.298-.485-5.978-1.454-1.68-.97-2.979-2.349-3.894-4.137-.916-1.788-1.374-3.91-1.374-6.366v-.031l33.802-.001v-3.781c0-4.223-.592-7.912-1.777-11.068-1.185-3.156-2.839-5.78-4.96-7.869a20.65 20.65 0 00-7.433-4.702c-2.833-1.045-5.887-1.567-9.162-1.567-4.868 0-9.107 1.077-12.716 3.232-3.608 2.154-6.403 5.16-8.385 9.016-1.982 3.856-2.973 8.337-2.973 13.443 0 5.235.99 9.764 2.973 13.588 1.982 3.824 4.81 6.776 8.482 8.855 3.673 2.079 8.063 3.118 13.169 3.118zm-10.988-31.12c.121-1.658.574-3.182 1.358-4.573a10.314 10.314 0 013.765-3.846c1.605-.958 3.452-1.438 5.542-1.438 2.003 0 3.764.437 5.283 1.31a9.405 9.405 0 013.571 3.602c.862 1.53 1.293 3.286 1.293 5.268h-20.83l.018-.323zm71.295 30.958c3.77 0 7.179-.975 10.227-2.925 3.049-1.95 5.462-4.826 7.24-8.628 1.776-3.803 2.665-8.472 2.665-14.009 0-5.687-.915-10.422-2.747-14.202-1.83-3.781-4.276-6.614-7.335-8.5-3.06-1.884-6.399-2.827-10.018-2.827-2.78 0-5.1.469-6.964 1.406-1.864.937-3.372 2.1-4.524 3.49-1.153 1.39-2.03 2.752-2.634 4.088h-.42V182.85h-13.766v66.182h13.572v-7.95h.614c.625 1.379 1.53 2.742 2.715 4.088 1.185 1.347 2.709 2.461 4.572 3.345 1.864.883 4.131 1.325 6.803 1.325zm-4.363-10.955c-2.219 0-4.104-.609-5.655-1.826-1.551-1.217-2.736-2.925-3.555-5.122-.818-2.198-1.228-4.772-1.228-7.723 0-2.952.41-5.516 1.228-7.692.819-2.175 1.998-3.856 3.539-5.04 1.54-1.186 3.43-1.778 5.671-1.778 2.262 0 4.169.614 5.72 1.842 1.551 1.228 2.725 2.93 3.522 5.106.797 2.176 1.196 4.696 1.196 7.562 0 2.886-.404 5.434-1.212 7.642-.808 2.208-1.987 3.932-3.538 5.17-1.552 1.24-3.447 1.859-5.688 1.859z"/></g></svg>