<svg xmlns="http://www.w3.org/2000/svg" width="312" height="141" viewBox="0 0 312 141"><rect width="312" height="141" fill="#FFF"/><path fill="#000" fill-rule="nonzero" d="M306,6 L306,134.571429 L6,134.571429 L6,6 L306,6 Z M300,12 L12,12 L12,128.571429 L300,128.571429 L300,12 Z"/><path fill="#000" fill-rule="nonzero" d="M77.726804,112.728306 L77.726804,94.876388 L77.9345455,94.876388 L90.2743892,112.728306 L95.4540767,112.728306 L95.4540767,84.3646692 L89.4849716,84.3646692 L89.4849716,102.202737 L89.2356818,102.202737 L76.9927841,84.3646692 L71.73,84.3646692 L71.73,112.728306 L77.726804,112.728306 Z M106.348068,113.129939 C107.400625,113.129939 108.328537,112.989137 109.131804,112.707531 C109.935071,112.425926 110.622926,112.033526 111.195369,111.53033 C111.767812,111.027134 112.224844,110.443149 112.566463,109.778377 L112.566463,109.778377 L112.732656,109.778377 L112.732656,112.728306 L118.327827,112.728306 L118.327827,98.3802942 C118.327827,97.1153795 118.083153,96.0281991 117.593807,95.118753 C117.10446,94.209307 116.437379,93.4637459 115.592564,92.8820698 C114.747749,92.3003937 113.782905,91.8710613 112.698033,91.5940726 C111.613161,91.317084 110.479815,91.1785897 109.297997,91.1785897 C107.599134,91.1785897 106.105703,91.4348042 104.817706,91.9472332 C103.529709,92.4596621 102.47946,93.1890655 101.66696,94.1354434 C100.85446,95.0818212 100.309716,96.201317 100.032727,97.4939306 L100.032727,97.4939306 L105.489403,97.9371124 C105.692528,97.2354079 106.108011,96.6514235 106.735852,96.1851593 C107.363693,95.7188951 108.208509,95.485763 109.270298,95.485763 C110.27669,95.485763 111.054567,95.7258198 111.603928,96.2059334 C112.153288,96.6860471 112.427969,97.3646692 112.427969,98.2417999 L112.427969,98.2417999 L112.427969,98.3248965 C112.427969,98.7773113 112.257159,99.1189306 111.91554,99.3497545 C111.57392,99.5805783 111.02456,99.7536962 110.267457,99.8691082 C109.510355,99.9845201 108.513196,100.106857 107.27598,100.236118 C106.223423,100.337681 105.219339,100.513107 104.263729,100.762397 C103.308118,101.011686 102.456378,101.381004 101.708509,101.870351 C100.960639,102.359698 100.36973,103.006004 99.9357812,103.809272 C99.5018324,104.612539 99.2848579,105.605081 99.2848579,106.786899 C99.2848579,108.190308 99.5918537,109.360585 100.205845,110.29773 C100.819837,111.234875 101.657727,111.941196 102.719517,112.416693 C103.781307,112.892191 104.990824,113.129939 106.348068,113.129939 Z M108.037699,109.058206 C107.132869,109.058206 106.387308,108.848156 105.801016,108.428057 C105.214723,108.007958 104.921577,107.396274 104.921577,106.593007 C104.921577,106.03903 105.064687,105.575074 105.350909,105.201139 C105.637131,104.827205 106.038764,104.529442 106.55581,104.307851 C107.072855,104.08626 107.677614,103.924683 108.370085,103.823121 C108.693239,103.776956 109.053324,103.723867 109.450341,103.663852 C109.847358,103.603838 110.244375,103.534591 110.641392,103.456111 C111.038409,103.377631 111.396186,103.289918 111.714723,103.192972 C112.03326,103.096026 112.284858,102.987539 112.469517,102.86751 L112.469517,102.86751 L112.469517,105.124968 C112.469517,105.872837 112.280241,106.542226 111.90169,107.133135 C111.523139,107.724044 111.001477,108.192617 110.336705,108.538852 C109.671932,108.885088 108.905597,109.058206 108.037699,109.058206 Z M127.677552,112.451317 C128.743959,112.885266 129.988099,113.074541 131.409974,113.019144 C132.17631,112.991445 132.827233,112.915273 133.362744,112.790628 C133.898256,112.665983 134.313739,112.557496 134.609193,112.465166 L134.609193,112.465166 L133.681281,108.074897 C133.533554,108.102595 133.321196,108.141835 133.044207,108.192617 C132.767219,108.243398 132.49023,108.268789 132.213241,108.268789 C131.816224,108.268789 131.46768,108.208774 131.167609,108.088746 C130.867538,107.968718 130.634406,107.758668 130.468213,107.458597 C130.30202,107.158526 130.218923,106.736118 130.218923,106.191374 L130.218923,106.191374 L130.218801,95.8875913 L134.221409,95.8873965 L134.221409,91.4555783 L130.218801,91.4557342 L130.218923,86.3589874 L124.319065,86.3589874 L124.318658,91.4557342 L121.410685,91.4555783 L121.410685,95.8873965 L124.318658,95.8875913 L124.319065,106.966942 C124.310272,108.294729 124.573652,109.404777 125.109205,110.297087 L125.191579,110.4293 C125.782489,111.343362 126.611146,112.017368 127.677552,112.451317 Z M141.02975,88.7133908 C141.906881,88.7133908 142.657059,88.4202445 143.280283,87.8339519 C143.903508,87.2476593 144.21512,86.5436465 144.21512,85.7219136 C144.21512,84.9094136 143.903508,84.2100172 143.280283,83.6237246 C142.657059,83.037432 141.902265,82.7442857 141.015901,82.7442857 C140.148003,82.7442857 139.400134,83.037432 138.772293,83.6237246 C138.144452,84.2100172 137.830532,84.9094136 137.830532,85.7219136 C137.830532,86.5436465 138.144452,87.2476593 138.772293,87.8339519 C139.400134,88.4202445 140.15262,88.7133908 141.02975,88.7133908 Z M143.951981,112.728306 L143.951981,91.4555783 L138.052123,91.4555783 L138.052123,112.728306 L143.951981,112.728306 Z M161.061513,112.728306 L168.498658,91.4555783 L162.252564,91.4555783 L157.848445,106.676104 L157.626854,106.676104 L153.208885,91.4555783 L146.976641,91.4555783 L154.413786,112.728306 L161.061513,112.728306 Z M180.135422,113.143789 C181.889683,113.143789 183.438512,112.873725 184.781906,112.333597 C186.125301,111.793469 187.224023,111.036367 188.078071,110.06229 C188.93212,109.088213 189.497638,107.945635 189.774627,106.634556 L189.774627,106.634556 L184.317951,106.27447 C184.114826,106.809982 183.819371,107.262397 183.431587,107.631715 C183.043803,108.001033 182.577539,108.278022 182.032794,108.462681 C181.48805,108.64734 180.887908,108.739669 180.232368,108.739669 C179.244442,108.739669 178.390394,108.531928 177.670223,108.116445 C176.950053,107.700962 176.393767,107.110053 176.001367,106.343718 C175.608966,105.577382 175.412766,104.667936 175.412766,103.615379 L175.412766,103.615379 L175.412515,103.601877 L189.899272,103.60153 L189.899272,101.981147 C189.899272,100.171487 189.645365,98.590344 189.137553,97.2377161 C188.62974,95.8850883 187.921111,94.7609761 187.011665,93.8653795 C186.102219,92.9697829 185.040429,92.2980854 183.826296,91.8502871 C182.612162,91.4024888 181.303391,91.1785897 179.899982,91.1785897 C177.813334,91.1785897 175.99675,91.6402374 174.45023,92.5635329 C172.90371,93.4868283 171.705735,94.7748255 170.856303,96.4275244 C170.006871,98.0802232 169.582155,100.000678 169.582155,102.188888 C169.582155,104.432496 170.006871,106.373725 170.856303,108.012574 C171.705735,109.651423 172.91756,110.916338 174.491779,111.807318 C176.065997,112.698298 177.947212,113.143789 180.135422,113.143789 Z M175.426554,99.807155 C175.478299,99.0965869 175.672212,98.4432322 176.008291,97.8470911 C176.396076,97.159236 176.933895,96.6098752 177.62175,96.1990087 C178.309605,95.7881422 179.101331,95.582709 179.996928,95.582709 C180.855593,95.582709 181.610387,95.7696763 182.26131,96.143611 C182.912233,96.5175457 183.422354,97.0322829 183.791672,97.6878226 C184.16099,98.3433624 184.345649,99.0958482 184.345649,99.9453056 L184.345649,99.9453056 L175.418515,99.9453056 L175.426554,99.807155 Z M215.13299,112.728306 L220.520419,94.1839164 L220.74201,94.1839164 L226.143289,112.728306 L231.987749,112.728306 L240.103516,84.3646692 L233.552735,84.3646692 L228.857777,104.113959 L228.608488,104.113959 L223.44265,84.3646692 L217.83363,84.3646692 L212.653942,104.072411 L212.418502,104.072411 L207.723544,84.3646692 L201.172763,84.3646692 L209.28853,112.728306 L215.13299,112.728306 Z M250.097919,113.143789 C251.852181,113.143789 253.401009,112.873725 254.744404,112.333597 C256.087799,111.793469 257.18652,111.036367 258.040569,110.06229 C258.894617,109.088213 259.460135,107.945635 259.737124,106.634556 L259.737124,106.634556 L254.280448,106.27447 C254.077323,106.809982 253.781868,107.262397 253.394084,107.631715 C253.0063,108.001033 252.540036,108.278022 251.995292,108.462681 C251.450547,108.64734 250.850405,108.739669 250.194865,108.739669 C249.206939,108.739669 248.352891,108.531928 247.632721,108.116445 C246.91255,107.700962 246.356265,107.110053 245.963864,106.343718 C245.571463,105.577382 245.375263,104.667936 245.375263,103.615379 L245.375263,103.615379 L245.375087,103.601877 L259.861769,103.60153 L259.861769,101.981147 C259.861769,100.171487 259.607863,98.590344 259.10005,97.2377161 C258.592238,95.8850883 257.883608,94.7609761 256.974162,93.8653795 C256.064716,92.9697829 255.002927,92.2980854 253.788793,91.8502871 C252.574659,91.4024888 251.265888,91.1785897 249.862479,91.1785897 C247.775831,91.1785897 245.959248,91.6402374 244.412728,92.5635329 C242.866208,93.4868283 241.668232,94.7748255 240.8188,96.4275244 C239.969368,98.0802232 239.544652,100.000678 239.544652,102.188888 C239.544652,104.432496 239.969368,106.373725 240.8188,108.012574 C241.668232,109.651423 242.880057,110.916338 244.454276,111.807318 C246.028495,112.698298 247.909709,113.143789 250.097919,113.143789 Z M245.389051,99.807155 C245.440797,99.0965869 245.634709,98.4432322 245.970789,97.8470911 C246.358573,97.159236 246.896392,96.6098752 247.584248,96.1990087 C248.272103,95.7881422 249.063829,95.582709 249.959425,95.582709 C250.81809,95.582709 251.572884,95.7696763 252.223807,96.143611 C252.874731,96.5175457 253.384851,97.0322829 253.754169,97.6878226 C254.123488,98.3433624 254.308147,99.0958482 254.308147,99.9453056 L254.308147,99.9453056 L245.381087,99.9453056 L245.389051,99.807155 Z M275.943705,113.074541 C277.559472,113.074541 279.020587,112.65675 280.32705,111.821168 C281.633513,110.985585 282.667604,109.752986 283.429323,108.12337 C284.191041,106.493753 284.571901,104.49251 284.571901,102.119641 C284.571901,99.6821408 284.1795,97.6531991 283.394699,96.0328155 C282.609898,94.412432 281.561958,93.1982985 280.250878,92.390415 C278.939798,91.5825315 277.508691,91.1785897 275.957554,91.1785897 C274.766503,91.1785897 273.771652,91.3794065 272.973002,91.78104 C272.174351,92.1826735 271.528044,92.681253 271.034081,93.2767786 C270.540118,93.8723042 270.163875,94.4562886 269.905352,95.0287317 L269.905352,95.0287317 L269.72531,95.0287317 L269.72531,84.3646692 L263.825452,84.3646692 L263.825452,112.728306 L269.642213,112.728306 L269.642213,109.321345 L269.905352,109.321345 C270.173108,109.912254 270.560892,110.496239 271.068705,111.073298 C271.576517,111.650358 272.229749,112.128164 273.028399,112.506715 C273.82705,112.885266 274.798818,113.074541 275.943705,113.074541 Z M274.074031,108.379584 C273.123037,108.379584 272.315154,108.118753 271.650381,107.597091 C270.985608,107.075429 270.477796,106.343718 270.126943,105.401956 C269.776091,104.460195 269.600665,103.356857 269.600665,102.091942 C269.600665,100.827027 269.776091,99.7283056 270.126943,98.7957772 C270.477796,97.8632488 270.9833,97.1430783 271.643456,96.6352658 C272.303612,96.1274533 273.113804,95.8735471 274.074031,95.8735471 C275.043492,95.8735471 275.860608,96.1366863 276.525381,96.6629647 C277.190154,97.1892431 277.69335,97.9186465 278.034969,98.8511749 C278.376588,99.7837033 278.547398,100.863959 278.547398,102.091942 C278.547398,103.329158 278.37428,104.420955 278.028044,105.367333 C277.681808,106.31371 277.176304,107.052347 276.511531,107.583242 C275.846759,108.114137 275.034259,108.379584 274.074031,108.379584 Z"/></svg>
